name ./resultDataOpenSim/trcMotMarkerGrf/sub09/grf-14-01.mot
datacolumns 19
datarows 20
range 0.50400000 0.58000000
endheader

                time	     ground_force_vx	     ground_force_vy	     ground_force_vz	     ground_force_px	     ground_force_py	     ground_force_pz	   l_ground_force_vx	   l_ground_force_vy	   l_ground_force_vz	   l_ground_force_px	   l_ground_force_py	   l_ground_force_pz	     ground_torque_x	     ground_torque_y	     ground_torque_z	   l_ground_torque_x	   l_ground_torque_y	   l_ground_torque_z	
          0.50400000	         44.40890647	        480.05036315	        -15.12320509	         -0.68045705	          0.00000000	          0.07460182	          0.00000000	          0.00000000	          0.00000000	          0.00000000	          0.00000000	          0.00000000	          0.00000000	          6.05954318	          0.00000000	          0.00000000	          0.00000000	          0.00000000	
          0.50800000	         46.84549435	        491.11962920	        -15.56245144	         -0.68003364	          0.00000000	          0.07427279	          0.00000000	          0.00000000	          0.00000000	          0.00000000	          0.00000000	          0.00000000	          0.00000000	          6.29925928	          0.00000000	          0.00000000	          0.00000000	          0.00000000	
          0.51200000	         49.32054376	        502.82086572	        -16.78263629	         -0.67955648	          0.00000000	          0.07398832	          0.00000000	          0.00000000	          0.00000000	          0.00000000	          0.00000000	          0.00000000	          0.00000000	          6.39900098	          0.00000000	          0.00000000	          0.00000000	          0.00000000	
          0.51600000	         52.09275905	        514.97573362	        -18.62852199	         -0.67887929	          0.00000000	          0.07380471	          0.00000000	          0.00000000	          0.00000000	          0.00000000	          0.00000000	          0.00000000	          0.00000000	          6.37753232	          0.00000000	          0.00000000	          0.00000000	          0.00000000	
          0.52000000	         55.34450653	        527.67145820	        -20.79900473	         -0.67803707	          0.00000000	          0.07368915	          0.00000000	          0.00000000	          0.00000000	          0.00000000	          0.00000000	          0.00000000	          0.00000000	          6.27541610	          0.00000000	          0.00000000	          0.00000000	          0.00000000	
          0.52400000	         59.17165087	        541.19694003	        -22.92829780	         -0.67723614	          0.00000000	          0.07355440	          0.00000000	          0.00000000	          0.00000000	          0.00000000	          0.00000000	          0.00000000	          0.00000000	          6.14469229	          0.00000000	          0.00000000	          0.00000000	          0.00000000	
          0.52800000	         63.53922956	        555.75369181	        -24.69047870	         -0.67660640	          0.00000000	          0.07334791	          0.00000000	          0.00000000	          0.00000000	          0.00000000	          0.00000000	          0.00000000	          0.00000000	          6.03636854	          0.00000000	          0.00000000	          0.00000000	          0.00000000	
          0.53200000	         68.26350383	        571.24074377	        -25.86651208	         -0.67604979	          0.00000000	          0.07308062	          0.00000000	          0.00000000	          0.00000000	          0.00000000	          0.00000000	          0.00000000	          0.00000000	          5.98878713	          0.00000000	          0.00000000	          0.00000000	          0.00000000	
          0.53600000	         73.08445755	        587.32309990	        -26.37544051	         -0.67535996	          0.00000000	          0.07279493	          0.00000000	          0.00000000	          0.00000000	          0.00000000	          0.00000000	          0.00000000	          0.00000000	          6.01948140	          0.00000000	          0.00000000	          0.00000000	          0.00000000	
          0.54000000	         77.77999064	        603.70737120	        -26.28418435	         -0.67444797	          0.00000000	          0.07251191	          0.00000000	          0.00000000	          0.00000000	          0.00000000	          0.00000000	          0.00000000	          0.00000000	          6.12201186	          0.00000000	          0.00000000	          0.00000000	          0.00000000	
          0.54400000	         82.23627774	        620.31407914	        -25.79062865	         -0.67342913	          0.00000000	          0.07221345	          0.00000000	          0.00000000	          0.00000000	          0.00000000	          0.00000000	          0.00000000	          0.00000000	          6.26806726	          0.00000000	          0.00000000	          0.00000000	          0.00000000	
          0.54800000	         86.44808828	        637.14366391	        -25.18273909	         -0.67247242	          0.00000000	          0.07187639	          0.00000000	          0.00000000	          0.00000000	          0.00000000	          0.00000000	          0.00000000	          0.00000000	          6.41421163	          0.00000000	          0.00000000	          0.00000000	          0.00000000	
          0.55200000	         90.48114128	        654.01672142	        -24.77426637	         -0.67161257	          0.00000000	          0.07151360	          0.00000000	          0.00000000	          0.00000000	          0.00000000	          0.00000000	          0.00000000	          0.00000000	          6.51202426	          0.00000000	          0.00000000	          0.00000000	          0.00000000	
          0.55600000	         94.43917970	        670.52476791	        -24.81954930	         -0.67073747	          0.00000000	          0.07116728	          0.00000000	          0.00000000	          0.00000000	          0.00000000	          0.00000000	          0.00000000	          0.00000000	          6.51973097	          0.00000000	          0.00000000	          0.00000000	          0.00000000	
          0.56000000	         98.44810679	        686.24895421	        -25.43946788	         -0.66973737	          0.00000000	          0.07086562	          0.00000000	          0.00000000	          0.00000000	          0.00000000	          0.00000000	          0.00000000	          0.00000000	          6.41278661	          0.00000000	          0.00000000	          0.00000000	          0.00000000	
          0.56400000	        102.63482158	        700.97560047	        -26.59460423	         -0.66862909	          0.00000000	          0.07059653	          0.00000000	          0.00000000	          0.00000000	          0.00000000	          0.00000000	          0.00000000	          0.00000000	          6.19076478	          0.00000000	          0.00000000	          0.00000000	          0.00000000	
          0.56800000	        107.08244615	        714.67326107	        -28.10130059	         -0.66751908	          0.00000000	          0.07032140	          0.00000000	          0.00000000	          0.00000000	          0.00000000	          0.00000000	          0.00000000	          0.00000000	          5.87873253	          0.00000000	          0.00000000	          0.00000000	          0.00000000	
          0.57200000	        111.78113485	        727.30625435	        -29.67119995	         -0.66647351	          0.00000000	          0.07000758	          0.00000000	          0.00000000	          0.00000000	          0.00000000	          0.00000000	          0.00000000	          0.00000000	          5.52276101	          0.00000000	          0.00000000	          0.00000000	          0.00000000	
          0.57600000	        116.62000116	        738.73932363	        -30.96701032	         -0.66545469	          0.00000000	          0.06964510	          0.00000000	          0.00000000	          0.00000000	          0.00000000	          0.00000000	          0.00000000	          0.00000000	          5.18069101	          0.00000000	          0.00000000	          0.00000000	          0.00000000	
          0.58000000	        121.43607711	        748.84745816	        -31.65930555	         -0.66438103	          0.00000000	          0.06923007	          0.00000000	          0.00000000	          0.00000000	          0.00000000	          0.00000000	          0.00000000	          0.00000000	          4.91024360	          0.00000000	          0.00000000	          0.00000000	          0.00000000	
